<?xml version="1.0" encoding="UTF-8"?>
<svg width="92px" height="92px" viewBox="0 0 92 92" version="1.1" xmlns="http://www.w3.org/2000/svg" xmlns:xlink="http://www.w3.org/1999/xlink">
    <!-- Generator: Sketch 53.1 (72631) - https://sketchapp.com -->
    <title>noun_Meeting Point_4385_000000</title>
    <desc>Created with Sketch.</desc>
    <g id="Page-1" stroke="none" stroke-width="1" fill="none" fill-rule="evenodd">
        <g id="Desktop" transform="translate(-433.000000, -143.000000)" fill="#000000" fill-rule="nonzero">
            <g id="Group" transform="translate(103.000000, 54.000000)">
                <g id="Group-8" transform="translate(248.000000, 89.000000)">
                    <g id="noun_Meeting-Point_4385_000000" transform="translate(82.000000, 0.000000)">
                        <path d="M56,45.9880295 C56,51.5267035 51.5281333,56 46.0119716,56 C40.4718667,56 36,51.5276243 36,45.9880295 C36,40.4604052 40.4718667,36 46.0119716,36 C51.5281333,36.0009208 56,40.4604052 56,45.9880295 Z" id="Path"></path>
                        <polygon id="Path" points="50.3386232 92 50.3386232 76.4517019 55 76.4397424 46.0027824 61 37 76.4517019 41.655812 76.4517019 41.655812 92"></polygon>
                        <polygon id="Path" points="0 50.3280107 15.5597497 50.3280107 15.5597497 55 31 46.005563 15.5533151 37 15.5597497 41.659009 0.00551535998 41.659009"></polygon>
                        <polygon id="Path" points="92 41.6531875 76.4494125 41.6531875 76.4494125 37 61 46.0055705 76.4494125 55 76.4494125 50.3449556 92 50.3338147"></polygon>
                        <polygon id="Path" points="41.6613768 0 41.6613768 15.5418409 37 15.5537955 46.0027824 31 55 15.5537955 50.3386232 15.5537955 50.3386232 0"></polygon>
                    </g>
                </g>
            </g>
        </g>
    </g>
</svg>