<?xml version="1.0" encoding="UTF-8"?>
<svg width="70px" height="70px" viewBox="0 0 70 70" version="1.1" xmlns="http://www.w3.org/2000/svg" xmlns:xlink="http://www.w3.org/1999/xlink">
    <!-- Generator: Sketch 53.2 (72643) - https://sketchapp.com -->
    <title>Facial recognition</title>
    <desc>Created with Sketch.</desc>
    <g id="Page-1" stroke="none" stroke-width="1" fill="none" fill-rule="evenodd">
        <g id="Desktop" transform="translate(-1015.000000, -1016.000000)">
            <g id="Standard-Features" transform="translate(-29.000000, 700.000000)">
                <g id="Facial-recognition">
                    <g transform="translate(1044.000000, 316.000000)">
                        <g id="Group">
                            <path d="M42.963039,37.8529589 L26.9650924,37.8529589 C22.3511294,37.8529589 18.613963,41.6066148 18.5995893,46.2231801 L18.5995893,51.2999637 L23.8603696,51.2999637 L23.8603696,46.4101438 C23.8603696,45.8204891 24.349076,45.3315071 24.9383984,45.3315071 C25.5277207,45.3315071 26.0164271,45.8204891 26.0164271,46.4101438 L26.0164271,51.2999637 L43.8398357,51.2999637 L43.8398357,46.4101438 C43.8398357,45.8204891 44.3285421,45.3315071 44.9178645,45.3315071 C45.5071869,45.3315071 45.9958932,45.8204891 45.9958932,46.4101438 L45.9958932,51.2999637 L51.3141684,51.2999637 L51.3141684,46.2231801 C51.3141684,41.6066148 47.5770021,37.8529589 42.963039,37.8529589 Z" id="Path"></path>
                            <path d="M35.3162218,31.6112476 C39.0821355,31.6112476 42.1437372,28.5479193 42.1437372,24.7798816 C42.1437372,24.7798816 42.1437372,24.7798816 42.1437372,24.7798816 C42.1437372,21.0118439 39.0821355,17.9628973 35.3162218,17.9485155 L35.3162218,17.9485155 C31.550308,17.9485155 28.4887064,21.0118439 28.4887064,24.7798816 C28.4887064,28.5479193 31.550308,31.5968658 35.3162218,31.6112476 Z" id="Path"></path>
                            <path d="M63.7474333,0 L57.9117043,0 C57.3223819,0 56.8336756,0.488981993 56.8336756,1.07863675 C56.8336756,1.6682915 57.3223819,2.1572735 57.9117043,2.1572735 L63.761807,2.1572735 C65.9753593,2.1572735 67.7864476,3.96938323 67.7864476,6.18418402 L67.7864476,12.0375861 C67.7864476,12.6272409 68.275154,13.1162229 68.8644764,13.1162229 C69.4537988,13.1162229 69.9425051,12.6272409 69.9425051,12.0375861 L69.9425051,6.18418402 C69.9137577,2.7756919 67.1540041,0 63.7474333,0 Z" id="Path" fill="#000000" fill-rule="nonzero"></path>
                            <path d="M12.0308008,0 L6.18069815,0 C2.77412731,0 0,2.7756919 0,6.18418402 L0,12.0375861 C0,12.6272409 0.488706366,13.1162229 1.07802875,13.1162229 C1.66735113,13.1162229 2.15605749,12.6272409 2.15605749,12.0375861 L2.15605749,6.18418402 C2.15605749,3.96938323 3.96714579,2.1572735 6.18069815,2.1572735 L12.0308008,2.1572735 C12.6201232,2.1572735 13.1088296,1.6682915 13.1088296,1.07863675 C13.1088296,0.488981993 12.6201232,0 12.0308008,0 Z" id="Path" fill="#000000" fill-rule="nonzero"></path>
                            <path d="M68.8501027,56.1322564 C68.2607803,56.1322564 67.7720739,56.6212384 67.7720739,57.2108931 L67.7720739,63.0642952 C67.7720739,65.279096 65.9609856,67.0912057 63.7474333,67.0912057 L57.9117043,67.0912057 C57.3223819,67.0912057 56.8336756,67.5801877 56.8336756,68.1698425 C56.8336756,68.7594972 57.3223819,69.2484792 57.9117043,69.2484792 L63.7474333,69.2484792 C67.1540041,69.2484792 69.9281314,66.4727873 69.9281314,63.0642952 L69.9281314,57.2252749 C69.9281314,56.6212384 69.4394251,56.1322564 68.8501027,56.1322564 Z" id="Path" fill="#000000" fill-rule="nonzero"></path>
                            <path d="M12.0308008,67.0912057 L6.18069815,67.0912057 C3.96714579,67.0912057 2.15605749,65.279096 2.15605749,63.0642952 L2.15605749,57.2252749 C2.15605749,56.6356202 1.66735113,56.1466382 1.07802875,56.1466382 C0.488706366,56.1466382 0,56.6212384 0,57.2108931 L0,63.0642952 C0,66.4727873 2.77412731,69.2484792 6.18069815,69.2484792 L12.0308008,69.2484792 L12.0308008,69.2484792 C12.6201232,69.2484792 13.1088296,68.7594972 13.1088296,68.1698425 C13.1088296,67.5801877 12.6201232,67.0912057 12.0308008,67.0912057 Z" id="Path" fill="#000000" fill-rule="nonzero"></path>
                            <path d="M35.3162218,33.7685211 C40.275154,33.7685211 44.2854209,29.7416106 44.2997947,24.7798816 C44.2997947,24.7798816 44.2997947,24.7798816 44.2997947,24.7798816 C44.2997947,19.8181525 40.275154,15.791242 35.3162218,15.791242 C30.3572895,15.791242 26.3326489,19.8181525 26.3326489,24.7798816 C26.3326489,29.7416106 30.3572895,33.7685211 35.3162218,33.7685211 Z M35.3162218,17.9485155 L35.3162218,17.9485155 C39.0821355,17.9628973 42.1293634,21.0118439 42.1437372,24.7798816 C42.1437372,24.7798816 42.1437372,24.7798816 42.1437372,24.7798816 C42.1437372,28.5479193 39.0821355,31.6112476 35.3162218,31.6112476 C31.550308,31.6112476 28.4887064,28.5479193 28.4887064,24.7798816 C28.4887064,20.997462 31.550308,17.9485155 35.3162218,17.9485155 Z" id="Shape" fill="#000000" fill-rule="nonzero"></path>
                            <path d="M42.963039,35.6956855 L26.9650924,35.6956855 C21.1581109,35.6956855 16.4579055,40.4129235 16.4435318,46.2231801 L16.4435318,51.3287274 C16.4435318,52.5080369 17.4065708,53.4716191 18.5852156,53.4716191 L51.3429158,53.4716191 C52.5215606,53.4716191 53.4845996,52.5080369 53.4845996,51.3287274 L53.4845996,46.2231801 C53.4702259,40.4129235 48.7700205,35.6956855 42.963039,35.6956855 Z M51.3285421,51.2999637 L46.0102669,51.2999637 L46.0102669,52.3066914 C46.0102669,52.8963461 45.5215606,53.3853281 44.9322382,53.3853281 C44.3429158,53.3853281 43.8542094,52.8963461 43.8542094,52.3066914 L43.8542094,51.2999637 L26.0308008,51.2999637 L26.0308008,52.3066914 C26.0308008,52.8963461 25.5420945,53.3853281 24.9527721,53.3853281 C24.3634497,53.3853281 23.8747433,52.8963461 23.8747433,52.3066914 L23.8747433,51.2999637 L18.613963,51.2999637 L18.613963,46.2231801 C18.613963,41.6066148 22.3655031,37.8673408 26.9794661,37.8529589 L42.9774127,37.8529589 C47.5913758,37.8529589 51.3285421,41.6066148 51.3429158,46.2231801 L51.3429158,51.2999637 L51.3285421,51.2999637 Z" id="Shape" fill="#000000" fill-rule="nonzero"></path>
                            <path d="M24.9527721,45.3315071 C24.3634497,45.3315071 23.8747433,45.8204891 23.8747433,46.4101438 L23.8747433,51.2999637 L23.8747433,52.3066914 C23.8747433,52.8963461 24.3634497,53.3853281 24.9527721,53.3853281 C25.5420945,53.3853281 26.0308008,52.8963461 26.0308008,52.3066914 L26.0308008,51.2999637 L26.0308008,46.4101438 C26.0308008,45.8204891 25.5420945,45.3315071 24.9527721,45.3315071 Z" id="Path" fill="#000000" fill-rule="nonzero"></path>
                            <path d="M44.9322382,45.3315071 C44.3429158,45.3315071 43.8542094,45.8204891 43.8542094,46.4101438 L43.8542094,51.2999637 L43.8542094,52.3066914 C43.8542094,52.8963461 44.3429158,53.3853281 44.9322382,53.3853281 C45.5215606,53.3853281 46.0102669,52.8963461 46.0102669,52.3066914 L46.0102669,51.2999637 L46.0102669,46.4101438 C46.0102669,45.8204891 45.5215606,45.3315071 44.9322382,45.3315071 Z" id="Path" fill="#000000" fill-rule="nonzero"></path>
                        </g>
                    </g>
                </g>
            </g>
        </g>
    </g>
</svg>