<?xml version="1.0" encoding="UTF-8"?>
<svg width="79px" height="76px" viewBox="0 0 79 76" version="1.1" xmlns="http://www.w3.org/2000/svg" xmlns:xlink="http://www.w3.org/1999/xlink">
    <!-- Generator: Sketch 53.1 (72631) - https://sketchapp.com -->
    <title>noun_form_77764</title>
    <desc>Created with Sketch.</desc>
    <g id="Page-1" stroke="none" stroke-width="1" fill="none" fill-rule="evenodd">
        <g id="Desktop" transform="translate(-730.000000, -151.000000)" fill="#000000" fill-rule="nonzero">
            <g id="Group" transform="translate(103.000000, 54.000000)">
                <g id="Group-9" transform="translate(541.000000, 97.000000)">
                    <g id="noun_form_77764" transform="translate(86.000000, 0.000000)">
                        <path d="M78.9,9 C78.9,7.9 78.5,6.9 77.7,6.2 L74.9,3.4 C74.1,2.6 73.1,2.2 72.1,2.2 C71.1,2.2 70,2.6 69.3,3.4 L56,16.5 L56,4 C56,1.8 54.2,0 52,0 L12,0 C9.8,0 8,1.8 8,4 L8,8 L4,8 C1.8,8 0,9.8 0,12 L0,72 C0,74.2 1.8,76 4,76 L44,76 C46.2,76 48,74.2 48,72 L48,68 L52,68 C54.2,68 56,66.2 56,64 L56,33.5 L77.7,11.8 C78.4,11 78.9,10 78.9,9 Z M44,72 L4,72 L4,12 L8,12 L8,64 C8,66.2 9.8,68 12,68 L44,68 L44,72 Z M52,64 L12,64 L12,4 L52,4 L52,20.5 L45.5,27 L28,27 L28,29 L43.5,29 L39.5,33 L28,33 L28,35 L37.5,35 L33.5,39 L28,39 L28,41 L31.5,41 L28.9,43.6 C28.7,43.8 28.5,44.1 28.3,44.4 L28.2,44.3 L25,52.3 L25,51 L17,51 L17,53 L24.7,53 L23.1,57 L17,57 L17,59 L25,59 L25,57.5 L36.2,53 L47,53 L47,51 L38.5,51 L42.5,47 L47,47 L47,45 L44.5,45 L52,37.5 L52,64 Z M34.6,49.3 L33.2,47.9 L31.8,46.5 L67.2,11.1 L70,13.9 L34.6,49.3 Z M71.3,12.5 L68.5,9.7 L72,6.2 L74.8,9 L71.3,12.5 Z M47,17 L28,17 L28,15 L47,15 L47,17 Z M25,29 L17,29 L17,27 L25,27 L25,29 Z M25,17 L17,17 L17,15 L25,15 L25,17 Z M25,11 L17,11 L17,9 L25,9 L25,11 Z M25,35 L17,35 L17,33 L25,33 L25,35 Z M25,41 L17,41 L17,39 L25,39 L25,41 Z M47,23 L28,23 L28,21 L47,21 L47,23 Z M47,11 L28,11 L28,9 L47,9 L47,11 Z" id="Shape"></path>
                    </g>
                </g>
            </g>
        </g>
    </g>
</svg>