<?xml version="1.0" encoding="UTF-8"?>
<svg width="70px" height="94px" viewBox="0 0 70 94" version="1.1" xmlns="http://www.w3.org/2000/svg" xmlns:xlink="http://www.w3.org/1999/xlink">
    <!-- Generator: Sketch 53.2 (72643) - https://sketchapp.com -->
    <title>Insurance</title>
    <desc>Created with Sketch.</desc>
    <g id="Page-1" stroke="none" stroke-width="1" fill="none" fill-rule="evenodd">
        <g id="Desktop" transform="translate(-606.000000, -1849.000000)" fill="#000000" fill-rule="nonzero">
            <g id="Premium-Features" transform="translate(0.000000, 1553.000000)">
                <g id="Insurance" transform="translate(606.000000, 296.000000)">
                    <path d="M68.3653972,38.3775407 C67.2083255,37.1411988 65.6496257,36.4322919 64.0909258,36.4322919 L24.7781142,36.4322919 L24.7781142,19.5097948 C27.2548213,19.8419622 29.4659013,21.3192052 30.7079737,23.5297634 C30.8960377,23.8640533 31.2509155,24.0720559 31.634481,24.0720559 C32.0180466,24.0720559 32.3729244,23.8651145 32.5609884,23.5297634 C33.9794371,21.00614 36.6601459,19.4386919 39.5576063,19.4386919 C41.8664371,19.4386919 44.056267,20.4267042 45.5682165,22.1490931 C45.8731564,22.4971791 46.3704103,22.6064865 46.7922262,22.4218312 C47.2151045,22.2371758 47.4722316,21.7999459 47.4244187,21.3393687 C46.1600337,9.17333911 35.9652653,0 23.7113557,0 C11.4627586,0 1.2711778,9.17121663 0.00573026473,21.33194 C-0.0420826143,21.791456 0.212919407,22.2286859 0.63579776,22.4144025 C1.05867611,22.5990579 1.55274253,22.4908116 1.85874496,22.1448481 C3.38131953,20.425643 5.57008688,19.4386919 7.86510507,19.4386919 C10.7625655,19.4386919 13.4432743,21.0072013 14.861723,23.5297634 C15.237851,24.1994044 16.3396723,24.1994044 16.7147377,23.5297634 C17.9578726,21.3170827 20.1732027,19.8398397 22.6520348,19.5097948 L22.6520348,35.6883643 C22.547909,35.6809356 22.4469707,35.6565272 22.3407198,35.6565272 C21.8360283,35.6565272 20.911646,35.8730197 20.3782668,37.3205479 C20.1285773,37.9986789 19.9915137,38.8869349 19.9915137,39.8218853 C19.9915137,42.3911419 20.8914583,43.9872435 22.3407198,43.9872435 C22.4469707,43.9872435 22.547909,43.9638963 22.6520348,43.9554064 L22.6520348,45.9834317 C22.6520348,47.5487574 21.5544636,48.1059072 20.527018,48.1059072 C19.4995723,48.1059072 18.4020011,47.5487574 18.4020011,45.9834317 L16.2769843,45.9834317 C16.2769843,48.4826466 18.0248106,50.2283827 20.527018,50.2283827 C23.0292253,50.2283827 24.7770516,48.4826466 24.7770516,45.9834317 L24.7770516,43.1870702 C24.7983018,43.1711517 24.817427,43.1520494 24.8386771,43.1361308 L47.3776683,45.8454708 L48.1713621,93.7391304 L62.9965421,93.7391304 L63.863549,65.8604147 L64.2949274,65.8604147 C66.6207584,65.8604147 68.5651488,64.0435757 68.720275,61.72371 L69.9889101,42.6500839 C70.0898484,41.1431263 69.4980312,39.5862905 68.3653972,38.3775407 Z M15.7892929,21.1186312 C13.8820903,18.7403974 10.9729422,17.3151551 7.86616758,17.3151551 C5.98446516,17.3151551 4.1601382,17.8383453 2.5833757,18.7987655 C4.85714373,9.12027722 13.4995872,2.1224755 23.7113557,2.1224755 C33.9252492,2.1224755 42.5687552,9.11921598 44.8457108,18.7977043 C43.2731983,17.8394066 41.4467463,17.3162164 39.5576063,17.3162164 C36.4508317,17.3162164 33.5416836,18.7414587 31.634481,21.1196925 C29.7272784,18.7414587 26.8181303,17.3162164 23.7113557,17.3162164 C20.6056436,17.3151551 17.6964955,18.7403974 15.7892929,21.1186312 Z M22.1175931,39.8218853 C22.1175931,38.7564026 22.3396573,38.0336997 22.4958461,37.7843088 C23.5509169,37.8628404 24.3860485,38.7457902 24.3860485,39.8208241 C24.3860485,40.8958579 23.5509169,41.779869 22.4958461,41.8584006 C22.3396573,41.6090097 22.1175931,40.8863068 22.1175931,39.8218853 Z M66.5984457,61.5825654 C66.5176951,62.7913152 65.506187,63.7379392 64.2938649,63.7379392 L63.9294245,63.7379392 L64.429866,47.6442688 L62.3048492,47.5774108 L60.9352758,91.6166549 L56.6533669,91.6166549 L56.6533669,64.0244734 L54.52835,64.0244734 L54.52835,91.6166549 L50.2602537,91.6166549 L49.4718724,43.9596513 L26.267751,41.1707185 C26.4143771,40.7451622 26.5110654,40.2962586 26.5110654,39.8218853 C26.5110654,39.3772267 26.4228772,38.9569766 26.2932512,38.5558287 L64.0909258,38.5558287 C65.063121,38.5558287 66.0565664,39.0206508 66.8141349,39.8282527 C67.5451407,40.6093237 67.9308313,41.5867237 67.8681433,42.5100005 L66.5984457,61.5825654 Z" id="Shape"></path>
                    <path d="M56.3038159,35.9130435 C60.1636836,35.9130435 63.3043478,32.7725087 63.3043478,28.9130435 C63.3043478,25.0535783 60.1636836,21.9130435 56.3038159,21.9130435 C52.4439481,21.9130435 49.3043478,25.0535783 49.3043478,28.9130435 C49.3043478,32.7725087 52.4439481,35.9130435 56.3038159,35.9130435 Z M56.3038159,24.0400565 C58.9901902,24.0400565 61.1765266,26.226626 61.1765266,28.9130435 C61.1765266,31.599461 58.9901902,33.7860304 56.3038159,33.7860304 C53.6174415,33.7860304 51.4321691,31.599461 51.4321691,28.9130435 C51.4321691,26.226626 53.6163776,24.0400565 56.3038159,24.0400565 Z" id="Shape"></path>
                    <path d="M3.65217391,93.7391304 L39.5652174,93.7391304 L39.5652174,60.8695652 L3.65217391,60.8695652 L3.65217391,93.7391304 Z M5.76470588,91.6185133 L5.76470588,70.4123422 L16.3273657,70.4123422 L16.3273657,81.0154278 L21.6086957,77.0392707 L26.8900256,81.0154278 L26.8900256,70.4123422 L37.4526854,70.4123422 L37.4526854,91.6185133 L5.76470588,91.6185133 Z M18.4398977,62.9901823 L24.7774936,62.9901823 L24.7774936,76.7741935 L21.6086957,74.3884993 L18.4398977,76.7741935 L18.4398977,62.9901823 Z M37.4526854,68.2917251 L26.8900256,68.2917251 L26.8900256,62.9901823 L37.4526854,62.9901823 L37.4526854,68.2917251 Z M16.3273657,62.9901823 L16.3273657,68.2917251 L5.76470588,68.2917251 L5.76470588,62.9901823 L16.3273657,62.9901823 Z" id="Shape"></path>
                </g>
            </g>
        </g>
    </g>
</svg>