<?xml version="1.0" encoding="UTF-8"?>
<svg width="70px" height="70px" viewBox="0 0 70 70" version="1.1" xmlns="http://www.w3.org/2000/svg" xmlns:xlink="http://www.w3.org/1999/xlink">
    <!-- Generator: Sketch 53.2 (72643) - https://sketchapp.com -->
    <title>bigger sizes</title>
    <desc>Created with Sketch.</desc>
    <g id="Page-1" stroke="none" stroke-width="1" fill="none" fill-rule="evenodd">
        <g id="Desktop" transform="translate(-184.000000, -1870.000000)" fill="#000000" fill-rule="nonzero">
            <g id="Premium-Features" transform="translate(0.000000, 1553.000000)">
                <g id="bigger-sizes" transform="translate(184.000000, 317.000000)">
                    <path d="M63.6363636,2.82602224e-15 L6.36363636,2.82602224e-15 C2.85079306,0.00409116183 0.00409116183,2.85079306 0,6.36363636 L0,30.7575758 C2.46877931e-08,31.9290888 0.949699033,32.8787878 2.12121212,32.8787878 C3.29272521,32.8787878 4.24242422,31.9290888 4.24242424,30.7575758 L4.24242424,6.36363636 C4.24242424,5.19212326 5.19212326,4.24242424 6.36363636,4.24242424 L63.6363636,4.24242424 C64.8078767,4.24242424 65.7575758,5.19212326 65.7575758,6.36363636 L65.7575758,63.6363636 C65.7575758,64.8078767 64.8078767,65.7575758 63.6363636,65.7575758 L39.2424242,65.7575758 C38.0709111,65.7575758 37.1212121,66.7072748 37.1212121,67.8787879 C37.1212121,69.050301 38.0709111,70 39.2424242,70 L63.6363636,70 C67.1492069,69.9959088 69.9959088,67.1492069 70,63.6363636 L70,6.36363636 C69.9959088,2.85079306 67.1492069,0.00409116183 63.6363636,2.82602224e-15 Z" id="Path"></path>
                    <path d="M28.8853755,34.6956522 L6.41897233,34.6956522 C2.87558256,34.6997789 0.00412673715,37.5712347 0,41.1146245 L0,63.5810277 C0.00412673715,67.1244174 2.87558256,69.9958733 6.41897233,70 L28.8853755,70 C32.4287653,69.9958733 35.3002211,67.1244174 35.3043478,63.5810277 L35.3043478,41.1146245 C35.3002211,37.5712347 32.4287653,34.6997789 28.8853755,34.6956522 Z M31.0250329,63.5810277 C31.0250329,64.7627278 30.0670757,65.7206851 28.8853755,65.7206851 L6.41897233,65.7206851 C5.23727216,65.7206851 4.27931489,64.7627278 4.27931489,63.5810277 L4.27931489,41.1146245 C4.27931489,39.9329243 5.23727216,38.9749671 6.41897233,38.9749671 L28.8853755,38.9749671 C30.0670757,38.9749671 31.0250329,39.9329243 31.0250329,41.1146245 L31.0250329,63.5810277 Z" id="Shape"></path>
                    <path d="M57.1974315,15.8294282 L57.1974315,19.2242578 C57.1974315,20.4064221 58.1557278,21.3647557 59.3378462,21.3647557 C60.5199646,21.3647557 61.4782609,20.4064221 61.4782609,19.2242578 L61.4782609,10.6622663 C61.4781876,10.5213876 61.4642072,10.3808603 61.4365228,10.2427287 C61.4236803,10.1785138 61.4001357,10.1196501 61.3819422,10.0575756 C61.3501602,9.90515238 61.2902785,9.75997887 61.205358,9.62947607 C61.1764624,9.57703387 61.1529178,9.52245117 61.1186712,9.47107923 C60.9616386,9.23597344 60.7598028,9.03412979 60.5247061,8.87709106 C60.4744064,8.84391335 60.4176854,8.82143812 60.3684559,8.7925414 C60.2399172,8.70832228 60.0969858,8.64846289 59.9467942,8.61595032 C59.8836519,8.59668584 59.8226501,8.57207012 59.7562973,8.55922713 C59.6208285,8.53359279 59.4832083,8.52104879 59.3453376,8.52176842 L50.7761874,8.52176842 C49.594069,8.52176842 48.6357728,9.48010196 48.6357728,10.6622663 C48.6357728,11.8444306 49.594069,12.8027642 50.7761874,12.8027642 L54.1708851,12.8027642 L35.3491486,31.624162 C34.7927337,32.1615864 34.5695826,32.9574308 34.7654636,33.7058119 C34.9613446,34.4541929 35.545774,35.0386451 36.294126,35.2345337 C37.042478,35.4304223 37.8382915,35.2072625 38.375695,34.650826 L57.1974315,15.8294282 Z" id="Path"></path>
                </g>
            </g>
        </g>
    </g>
</svg>