<?xml version="1.0" encoding="UTF-8"?>
<svg width="66px" height="66px" viewBox="0 0 66 66" version="1.1" xmlns="http://www.w3.org/2000/svg" xmlns:xlink="http://www.w3.org/1999/xlink">
    <!-- Generator: Sketch 53.2 (72643) - https://sketchapp.com -->
    <title>noun_tracker_1315948</title>
    <desc>Created with Sketch.</desc>
    <defs>
        <rect id="path-1" x="0" y="0" width="70" height="71.4"></rect>
    </defs>
    <g id="Page-1" stroke="none" stroke-width="1" fill="none" fill-rule="evenodd">
        <g id="Desktop" transform="translate(-187.000000, -996.000000)">
            <g id="Standard-Features" transform="translate(-29.000000, 700.000000)">
                <g id="noun_tracker_1315948">
                    <g transform="translate(212.000000, 296.000000)">
                        <mask id="mask-2" fill="white">
                            <use xlink:href="#path-1"></use>
                        </mask>
                        <g id="Mask"></g>
                        <g mask="url(#mask-2)" fill="#000000" id="Group">
                            <g transform="translate(3.684211, 0.469973)">
                                <path d="M33.1356406,0.247542105 C32.9428827,0.250489474 32.750788,0.291678947 32.5737985,0.368045263 C32.3968091,0.444448421 32.2350722,0.555984211 32.1007459,0.694267368 C31.9664196,0.832543158 31.8596512,0.997463158 31.7883985,1.17660421 C31.7171459,1.35573789 31.6815564,1.54896 31.6842827,1.74171789 L31.6842827,12.3550074 C31.6464827,12.5847179 31.6640933,12.8233663 31.7352722,13.0450305 C31.8064512,13.2666874 31.9310504,13.4709842 32.0955143,13.6357347 C32.1055354,13.6464926 32.1156301,13.6571032 32.1259459,13.6674926 C32.1266827,13.6679347 32.1270512,13.6682295 32.1275669,13.6689663 C32.2898933,13.8275347 32.4893564,13.9478463 32.7053248,14.0174558 C32.9212933,14.0870874 33.1534722,14.1058695 33.3778406,14.0719084 C43.2082022,14.1894495 51.1148127,22.1605632 51.1148127,32.0185895 C51.1148127,32.0709053 51.108918,32.172 51.1081812,32.3248947 L51.1059706,32.4109579 C51.0772338,32.5608316 51.0719285,32.7152 51.0903496,32.8666947 C50.6509706,42.3273053 42.9276864,49.8583474 33.3785038,49.9729263 C33.2324617,49.9508211 33.0831038,49.9508211 32.9370617,49.9729263 C23.3935564,49.8581263 15.6685775,42.3239158 15.2323669,32.8604316 C15.2515985,32.7002421 15.2442301,32.5368105 15.2107038,32.3789789 C15.2090091,32.2655789 15.2081985,32.1472421 15.2081985,32.0185895 C15.2081985,24.0922611 20.3329354,17.3833505 27.4448617,14.9945747 C27.6298827,14.9348905 27.8028933,14.8382095 27.9505564,14.7118411 C28.0982933,14.58548 28.2206091,14.4295568 28.3082196,14.2560158 C28.3958301,14.0824747 28.448588,13.8914484 28.4625143,13.6975558 C28.4764406,13.5036632 28.4514617,13.3070589 28.3895669,13.1227821 C28.3276722,12.9384979 28.2289354,12.7667032 28.1007985,12.6205284 C27.972588,12.4743537 27.8151985,12.3539168 27.6406406,12.2684358 C27.4660091,12.1829547 27.2744301,12.1324958 27.0803459,12.12092 C26.8862617,12.1093516 26.6900406,12.1366884 26.5064933,12.2007937 C18.4606933,14.9032653 12.6120091,22.3670705 12.2769669,31.2156526 L2.21052447,31.2156526 C2.01607184,31.2156526 1.82125079,31.2495474 1.64087184,31.3224211 C1.46049289,31.3953684 1.29477711,31.5039789 1.15647184,31.6406632 C1.01809289,31.7772737 0.907124474,31.9415895 0.832187632,32.1210105 C0.757177105,32.3003579 0.718198158,32.4947368 0.718198158,32.6891895 C0.718198158,32.8836421 0.757177105,33.0780211 0.832187632,33.2574421 C0.907124474,33.4368632 1.01809289,33.6011789 1.15647184,33.7377895 C1.29477711,33.8744737 1.46049289,33.9833053 1.64087184,34.0560316 C1.82125079,34.1289789 2.01607184,34.1652316 2.21052447,34.1628 L12.3745248,34.1628 C13.4009459,44.2054421 21.5588933,52.1612 31.6842091,52.8702632 L31.6842091,63.6364105 C31.6817775,63.8308632 31.7183248,64.0256842 31.7910512,64.2059895 C31.8637775,64.3862947 31.9726091,64.5520105 32.1092933,64.6903158 C32.2459038,64.8286211 32.4102196,64.9395158 32.5895669,65.0145263 C32.768988,65.0894632 32.9633669,65.1284421 33.1578196,65.1284421 C33.3521985,65.1284421 33.5465775,65.0893895 33.7259985,65.0145263 C33.9053452,64.9395158 34.0696609,64.8286211 34.2062722,64.6903158 C34.3429564,64.5520105 34.451788,64.3862947 34.5245136,64.2059895 C34.5972399,64.0256842 34.633788,63.8308632 34.6313557,63.6364105 L34.6313557,52.8704842 C44.7628646,52.1619368 52.9218436,44.2058105 53.9483391,34.1628 L64.1052654,34.1628 C64.299718,34.1628 64.4945391,34.1289053 64.674918,34.0560316 C64.8552969,33.9830842 65.021012,33.8744737 65.159318,33.7377895 C65.2976969,33.6011789 65.4086654,33.4368632 65.4836022,33.2574421 C65.558612,33.0780211 65.5975909,32.8836421 65.5975909,32.6891895 C65.5975909,32.4947368 65.558612,32.3003579 65.4836022,32.1209368 C65.4086654,31.9415158 65.2976969,31.7772 65.159318,31.6405895 C65.021012,31.5039053 64.8552969,31.3950737 64.674918,31.3224211 C64.4945391,31.2494737 64.299718,31.2131474 64.1052654,31.2156526 L54.0450864,31.2156526 C53.6399706,20.5524126 45.2068127,11.9143168 34.6313564,11.1744537 L34.6313564,1.74171789 C34.6340827,1.54525368 34.5970933,1.34831789 34.5231143,1.16629579 C34.4491354,0.984266316 34.3383143,0.817305263 34.1992722,0.678447368 C34.0603038,0.539589474 33.893188,0.428952632 33.7111143,0.355187368 C33.5289669,0.281414737 33.3320091,0.244572632 33.1355669,0.247542105 L33.1356406,0.247542105 Z" id="Path"></path>
                                <path d="M33.1579669,25.9911916 C36.8799038,25.9911916 39.8558617,28.9671053 39.8558617,32.6891158 C39.8558617,36.4110526 36.8799038,39.3871579 33.1579669,39.3871579 C29.4446512,39.3871579 26.4598512,36.4094316 26.4598512,32.6891158 C26.4598512,28.9687116 29.4446512,25.9911916 33.1579669,25.9911916 L33.1579669,25.9911916 Z" id="Path"></path>
                            </g>
                        </g>
                    </g>
                </g>
            </g>
        </g>
    </g>
</svg>