<?xml version="1.0" encoding="UTF-8"?>
<svg width="70px" height="51px" viewBox="0 0 70 51" version="1.1" xmlns="http://www.w3.org/2000/svg" xmlns:xlink="http://www.w3.org/1999/xlink">
    <!-- Generator: Sketch 53.2 (72643) - https://sketchapp.com -->
    <title>Live stream</title>
    <desc>Created with Sketch.</desc>
    <g id="Page-1" stroke="none" stroke-width="1" fill="none" fill-rule="evenodd">
        <g id="Desktop" transform="translate(-1015.000000, -831.000000)" fill="#000000" fill-rule="nonzero">
            <g id="Standard-Features" transform="translate(-29.000000, 700.000000)">
                <g id="Live-stream">
                    <g transform="translate(1044.000000, 131.000000)">
                        <g id="Group">
                            <path d="M35,1.76657104 C26.6,1.76657104 20.146,10.3750998 19.88,10.7396303 C19.5066667,11.2381336 19.5066667,11.9235756 19.88,12.4220789 C20.146,12.7866094 26.6,21.3951382 35,21.3951382 C43.4,21.3951382 49.854,12.7866094 50.12,12.4220789 C50.4933333,11.9235756 50.4933333,11.2381336 50.12,10.7396303 C49.854,10.3750998 43.4,1.76657104 35,1.76657104 Z M35,18.5910571 C29.4,18.5910571 24.542,13.5997929 22.806,11.5808546 C24.542,9.56191627 29.4,4.57065206 35,4.57065206 C40.6,4.57065206 45.458,9.56191627 47.194,11.5808546 C45.458,13.5997929 40.6,18.5910571 35,18.5910571 Z" id="Shape"></path>
                            <path d="M39.102,8.95903885 C38.5103109,8.90514128 37.9490927,9.23112227 37.702,9.77222234 C37.5882411,10.0184079 37.3428652,10.1767695 37.072,10.1788141 C36.6854007,10.1788141 36.372,9.86495663 36.372,9.47779384 C36.3740416,9.20653383 36.5321727,8.96080034 36.778,8.84687561 C37.3007366,8.60046042 37.6186347,8.05777434 37.5783524,7.48058831 C37.5380702,6.90340227 37.1478821,6.41027822 36.596,6.23908026 C36.080674,6.0693112 35.5424506,5.97947655 35,5.97269256 C31.9072054,5.97269256 29.4,8.48355223 29.4,11.5808546 C29.4,14.678157 31.9072054,17.1890166 35,17.1890166 C38.0927946,17.1890166 40.6,14.678157 40.6,11.5808546 C40.5961024,11.0281969 40.5063623,10.4795117 40.334,9.95448761 C40.1680496,9.39969249 39.6785502,9.00417985 39.102,8.95903885 Z M35,14.3849356 C33.7248998,14.3938636 32.6048207,13.5388861 32.275447,12.3052332 C31.9460733,11.0715802 32.4906046,9.77087109 33.6,9.14130411 C33.5930295,9.25335874 33.5930295,9.36573921 33.6,9.47779384 C33.6082808,10.4645403 34.0266256,11.4032355 34.7545187,12.0683396 C35.4824118,12.7334436 36.4540579,13.0648367 37.436,12.9828951 C36.9338453,13.8539385 36.0043173,14.3889286 35,14.3849356 Z" id="Shape"></path>
                            <path d="M19.166,6.81391687 C18.6199476,6.27031268 17.7380524,6.27031268 17.192,6.81391687 C14.6381657,9.43379441 14.6381657,13.6157515 17.192,16.2356291 C17.4549324,16.5118525 17.8189373,16.6688053 18.2,16.6702616 C18.7256054,16.6410828 19.1904408,16.3191009 19.4031401,15.8368714 C19.6158395,15.3546418 19.5404467,14.7936838 19.208,14.3849356 C18.4624896,13.6427941 18.0432901,12.6335564 18.0432901,11.5808546 C18.0432901,10.5281528 18.4624896,9.51891505 19.208,8.77677358 C19.7301078,8.22021477 19.7114354,7.34756642 19.166,6.81391687 Z" id="Path"></path>
                            <path d="M12.978,6.32320269 C13.3998051,6.01694259 13.6169009,5.5014459 13.5414941,4.98517951 C13.4660872,4.46891311 13.1106524,4.03728531 12.6189277,3.86484642 C12.1272029,3.69240752 11.5805363,3.80768487 11.2,4.16406031 C8.94319973,5.96219479 7.62823727,8.69272502 7.62823727,11.5808546 C7.62823727,14.4689842 8.94319973,17.1995144 11.2,18.9976489 C11.4518769,19.2066667 11.768887,19.3207583 12.096,19.3201182 C12.5124051,19.3207954 12.9075009,19.1358061 13.174,18.8153836 C13.4104707,18.5274893 13.5227211,18.1571378 13.4859422,17.7861823 C13.4491634,17.4152267 13.2663836,17.0742117 12.978,16.8385065 C11.3674417,15.5705698 10.4271278,13.6324706 10.4271278,11.5808546 C10.4271278,9.52923855 11.3674417,7.59113944 12.978,6.32320269 L12.978,6.32320269 Z" id="Path"></path>
                            <path d="M8.176,20.1613425 C4.93468861,18.5198842 2.86575839,15.2177208 2.8,11.5808546 C2.86575839,7.9439884 4.93468861,4.64182495 8.176,3.00036669 C8.85641478,2.63256202 9.1102693,1.78200833 8.74299995,1.10060183 C8.3757306,0.419195324 7.52641481,0.164970774 6.846,0.532775393 C2.69917874,2.66392462 0.0658763409,6.91354974 0,11.5808546 C0.0658763409,16.2481595 2.69917874,20.4977846 6.846,22.6289338 C7.28615121,22.8668617 7.81961598,22.851556 8.2454433,22.5887823 C8.67127062,22.3260085 8.92476718,21.8556883 8.9104433,21.3549866 C8.89611941,20.854285 8.61615121,20.3992704 8.176,20.1613425 L8.176,20.1613425 Z" id="Path"></path>
                            <path d="M50.834,6.81391687 C50.5689623,7.07717325 50.4198823,7.435529 50.4198823,7.80936563 C50.4198823,8.18320226 50.5689623,8.54155801 50.834,8.80481439 C52.3791823,10.3539694 52.3791823,12.8638214 50.834,14.4129764 C50.4882356,14.8153218 50.3990192,15.3787234 50.6035197,15.8684592 C50.8080203,16.3581949 51.2711648,16.6902726 51.8,16.7263433 C52.1810627,16.7248869 52.5450676,16.5679341 52.808,16.2917107 C55.3618343,13.6718332 55.3618343,9.48987603 52.808,6.86999849 C52.2774823,6.31057603 51.395333,6.28551404 50.834,6.81391687 Z" id="Path"></path>
                            <path d="M58.8,4.16406031 C58.4194637,3.80768487 57.8727971,3.69240752 57.3810723,3.86484642 C56.8893476,4.03728531 56.5339128,4.46891311 56.4585059,4.98517951 C56.3830991,5.5014459 56.6001949,6.01694259 57.022,6.32320269 C58.6325583,7.59113944 59.5728722,9.52923855 59.5728722,11.5808546 C59.5728722,13.6324706 58.6325583,15.5705698 57.022,16.8385065 C56.7336164,17.0742117 56.5508366,17.4152267 56.5140578,17.7861823 C56.4772789,18.1571378 56.5895293,18.5274893 56.826,18.8153836 C57.0924991,19.1358061 57.4875949,19.3207954 57.904,19.3201182 C58.231113,19.3207583 58.5481231,19.2066667 58.8,18.9976489 C61.0568003,17.1995144 62.3717627,14.4689842 62.3717627,11.5808546 C62.3717627,8.69272502 61.0568003,5.96219479 58.8,4.16406031 L58.8,4.16406031 Z" id="Path"></path>
                            <path d="M63.154,0.532775393 C62.7138488,0.282324978 62.1737131,0.286059374 61.7370567,0.542571868 C61.3004003,0.799084363 61.0335619,1.26940461 61.0370567,1.77636752 C61.0405516,2.28333042 61.3138488,2.74991627 61.754,3.00036669 C65.0224844,4.62255658 67.1207819,7.92854574 67.2,11.5808546 C67.1342416,15.2177208 65.0653114,18.5198842 61.824,20.1613425 C61.1435852,20.5485053 60.9054007,21.4147519 61.292,22.0961584 C61.6785993,22.7775649 62.5435852,23.0160966 63.224,22.6289338 C67.3436922,20.4788049 69.9477766,16.2329178 70,11.5808546 C69.9341237,6.91354974 67.3008213,2.66392462 63.154,0.532775393 Z" id="Path"></path>
                            <path d="M43.4,42.4257458 L42.98,42.4257458 C41.7765568,38.6989813 41.0382794,34.8373896 40.782,30.9290136 C40.5704998,27.887144 38.0447971,25.5277592 35,25.5277592 C31.9552029,25.5277592 29.4295002,27.887144 29.218,30.9290136 C28.9617206,34.8373896 28.2234432,38.6989813 27.02,42.4257458 L26.6,42.4257458 C25.8268014,42.4257458 25.2,43.0534607 25.2,43.8277863 L25.2,49.4359483 C25.2,50.2102739 25.8268014,50.8379888 26.6,50.8379888 L43.4,50.8379888 C44.1731986,50.8379888 44.8,50.2102739 44.8,49.4359483 L44.8,43.8277863 C44.8,43.0534607 44.1731986,42.4257458 43.4,42.4257458 Z M32.004,31.2094217 C32.1533272,29.6643222 33.4499396,28.4854297 35,28.4854297 C36.5500604,28.4854297 37.8466728,29.6643222 37.996,31.2094217 C38.2569847,35.0107054 38.9330173,38.7719163 40.012,42.4257458 L29.988,42.4257458 C31.0669827,38.7719163 31.7430153,35.0107054 32.004,31.2094217 L32.004,31.2094217 Z M42,48.0339078 L28,48.0339078 L28,45.2298268 L42,45.2298268 L42,48.0339078 Z" id="Shape"></path>
                        </g>
                    </g>
                </g>
            </g>
        </g>
    </g>
</svg>