<?xml version="1.0" encoding="UTF-8"?>
<svg width="243px" height="77px" viewBox="0 0 243 77" version="1.1" xmlns="http://www.w3.org/2000/svg" xmlns:xlink="http://www.w3.org/1999/xlink">
    <!-- Generator: Sketch 53.1 (72631) - https://sketchapp.com -->
    <title>Logo</title>
    <desc>Created with Sketch.</desc>
    <g id="Page-1" stroke="none" stroke-width="1" fill="none" fill-rule="evenodd">
        <g id="Desktop" transform="translate(-2060.000000, -688.000000)">
            <g id="Logo" transform="translate(2060.000000, 688.000000)">
                <g id="Localozation" fill-rule="nonzero">
                    <g id="Group">
                        <path d="M27.6736842,75.8848485 L53.8421053,62.0666667 C54.1894737,61.8363636 54.4210526,61.4909091 54.4210526,61.030303 L54.4210526,36.2727273 C54.4210526,35.8121212 54.0736842,35.3515152 53.7263158,35.2363636 L27.6736842,21.0727273 C27.3263158,20.8424242 26.8631579,20.8424242 26.6315789,21.0727273 C24.6631579,22.1090909 4.51578947,32.8181818 0.578947368,34.7757576 C0.231578947,35.0060606 0,35.4666667 0,35.8121212 L0,58.4969697 C0,58.8424242 0.231578947,59.3030303 0.578947368,59.4181818 L26.5157895,75.6545455 C26.7473684,75.769697 26.8631579,75.8848485 27.0947368,75.8848485 C27.3263158,76 27.5578947,75.8848485 27.6736842,75.8848485 Z M28.2526316,72.8909091 L28.2526316,51.1272727 L36.7052632,46.5212121 L36.7052632,53.2 C36.7052632,53.6606061 36.9368421,54.0060606 37.2842105,54.2363636 C37.5157895,54.3515152 37.6315789,54.3515152 37.8631579,54.3515152 C38.0947368,54.3515152 38.2105263,54.3515152 38.4421053,54.2363636 L44.8105263,50.7818182 C45.1578947,50.5515152 45.3894737,50.2060606 45.3894737,49.7454545 L45.3894737,41.8 L52.1052632,38.1151515 L52.1052632,60.2242424 L28.2526316,72.8909091 Z M18.0631579,28.2121212 L43.0736842,41.8 L43.0736842,49.0545455 L39.0210526,51.2424242 L39.0210526,44.5636364 C39.0210526,44.5636364 39.0210526,44.5636364 39.0210526,44.4484848 C39.0210526,44.4484848 39.0210526,44.3333333 39.0210526,44.3333333 C39.0210526,44.2181818 39.0210526,44.1030303 38.9052632,43.9878788 C38.9052632,43.9878788 38.9052632,43.9878788 38.9052632,43.9878788 C38.9052632,43.9878788 38.9052632,43.9878788 38.9052632,43.9878788 C38.7894737,43.8727273 38.7894737,43.7575758 38.6736842,43.6424242 C38.6736842,43.6424242 38.6736842,43.6424242 38.5578947,43.5272727 C38.5578947,43.5272727 38.4421053,43.4121212 38.4421053,43.4121212 L14.0105263,30.4 L18.0631579,28.2121212 Z M27.0947368,23.3757576 L50.8315789,36.2727273 L44.2315789,39.8424242 L20.4947368,26.9454545 L27.0947368,23.3757576 Z M11.4631579,31.6666667 L35.4315789,44.5636364 L27.0947368,49.0545455 L3.58947368,35.8121212 L11.4631579,31.6666667 Z M2.31578947,57.9212121 L2.31578947,37.769697 L25.9368421,51.0121212 L25.9368421,72.6606061 L2.31578947,57.9212121 Z" id="Shape" fill="#000000"></path>
                        <path d="M22.3473684,55.6181818 L7.17894737,46.8666667 C6.6,46.5212121 5.90526316,46.7515152 5.55789474,47.3272727 C5.21052632,47.9030303 5.44210526,48.5939394 6.02105263,48.9393939 L21.1894737,57.6909091 C21.7684211,58.0363636 22.4631579,57.8060606 22.8105263,57.230303 C23.1578947,56.6545455 22.9263158,55.9636364 22.3473684,55.6181818 Z" id="Path" fill="#000000"></path>
                        <path d="M22.2315789,61.3757576 L7.06315789,52.5090909 C6.48421053,52.2787879 5.78947368,52.3939394 5.44210526,52.969697 C5.09473684,53.5454545 5.32631579,54.2363636 5.90526316,54.5818182 L21.0736842,63.3333333 C21.6526316,63.6787879 22.3473684,63.4484848 22.6947368,62.8727273 C23.0421053,62.4121212 22.8105263,61.7212121 22.2315789,61.3757576 Z" id="Path" fill="#000000"></path>
                        <path d="M64.9578947,36.9636364 C64.9578947,36.9636364 64.9578947,36.9636364 64.9578947,36.9636364 C65.4210526,36.9636364 65.7684211,36.7333333 66,36.3878788 C66.4631579,35.6969697 76.5368421,19.1151515 76.5368421,11.2848485 C76.4210526,5.06666667 71.3263158,0 64.9578947,0 C58.5894737,0 53.4947368,5.06666667 53.4947368,11.4 C53.4947368,19.5757576 63.5684211,35.8121212 64.0315789,36.5030303 C64.1473684,36.8484848 64.4947368,36.9636364 64.9578947,36.9636364 Z M64.9578947,2.3030303 C70.0526316,2.3030303 74.1052632,6.33333333 74.1052632,11.4 C74.1052632,17.1575758 67.5052632,29.2484848 64.9578947,33.6242424 C62.4105263,29.2484848 55.8105263,17.5030303 55.8105263,11.4 C55.8105263,6.33333333 59.8631579,2.3030303 64.9578947,2.3030303 Z" id="Shape" fill="#000000"></path>
                        <path d="M71.3263158,11.169697 C71.3263158,7.71515152 68.4315789,4.83636364 64.9578947,4.83636364 C61.4842105,4.83636364 58.5894737,7.71515152 58.5894737,11.169697 C58.5894737,14.6242424 61.4842105,17.5030303 64.9578947,17.5030303 C68.4315789,17.5030303 71.3263158,14.6242424 71.3263158,11.169697 Z M60.9052632,11.169697 C60.9052632,8.98181818 62.7578947,7.13939394 64.9578947,7.13939394 C67.1578947,7.13939394 69.0105263,8.98181818 69.0105263,11.169697 C69.0105263,13.3575758 67.1578947,15.2 64.9578947,15.2 C62.6421053,15.2 60.9052632,13.3575758 60.9052632,11.169697 Z" id="Shape" fill="#000000"></path>
                        <path d="M69.3578947,40.4181818 C69.1263158,40.1878788 68.8947368,40.0727273 68.5473684,40.0727273 C68.2,40.0727273 67.9684211,40.1878788 67.7368421,40.4181818 L61.0210526,47.0969697 C60.5578947,47.5575758 60.5578947,48.2484848 61.0210526,48.7090909 C61.4842105,49.169697 62.1789474,49.169697 62.6421053,48.7090909 L67.3894737,43.9878788 L67.3894737,71.6242424 L47.3578947,71.6242424 C46.6631579,71.6242424 46.2,72.0848485 46.2,72.7757576 C46.2,73.4666667 46.6631579,73.9272727 47.3578947,73.9272727 L68.5473684,73.9272727 C69.2421053,73.9272727 69.7052632,73.4666667 69.7052632,72.7757576 L69.7052632,43.9878788 L74.4526316,48.7090909 C74.9157895,49.169697 75.6105263,49.169697 76.0736842,48.7090909 C76.5368421,48.2484848 76.5368421,47.5575758 76.0736842,47.0969697 L69.3578947,40.4181818 Z" id="Path" fill="#10A68F"></path>
                        <path d="M9.72631579,26.6 C10.4210526,26.6 10.8842105,26.1393939 10.8842105,25.4484848 L10.8842105,8.98181818 L46.7789474,8.98181818 L42.0315789,13.7030303 C41.5684211,14.1636364 41.5684211,14.8545455 42.0315789,15.3151515 C42.4947368,15.7757576 43.1894737,15.7757576 43.6526316,15.3151515 L50.3684211,8.63636364 C50.3684211,8.63636364 50.3684211,8.63636364 50.3684211,8.63636364 C50.4842105,8.52121212 50.6,8.40606061 50.6,8.29090909 C50.7157895,8.17575758 50.7157895,7.94545455 50.7157895,7.83030303 C50.7157895,7.71515152 50.7157895,7.48484848 50.6,7.36969697 C50.6,7.25454545 50.4842105,7.13939394 50.3684211,7.02424242 C50.3684211,7.02424242 50.3684211,7.02424242 50.3684211,7.02424242 L43.6526316,0.345454545 C43.1894737,-0.115151515 42.4947368,-0.115151515 42.0315789,0.345454545 C41.5684211,0.806060606 41.5684211,1.4969697 42.0315789,1.95757576 L46.7789474,6.67878788 L9.72631579,6.67878788 C9.03157895,6.67878788 8.56842105,7.13939394 8.56842105,7.83030303 L8.56842105,25.4484848 C8.56842105,26.0242424 9.03157895,26.6 9.72631579,26.6 Z" id="Path" fill="#10A68F"></path>
                    </g>
                </g>
                <text id="Postopia" font-family="Lato-Regular, Lato" font-size="44" font-weight="normal" fill="#000000">
                    <tspan x="77" y="69">Postopia</tspan>
                </text>
            </g>
        </g>
    </g>
</svg>