<?xml version="1.0" encoding="UTF-8"?>
<svg width="70px" height="54px" viewBox="0 0 70 54" version="1.1" xmlns="http://www.w3.org/2000/svg" xmlns:xlink="http://www.w3.org/1999/xlink">
    <!-- Generator: Sketch 53.2 (72643) - https://sketchapp.com -->
    <title>next day</title>
    <desc>Created with Sketch.</desc>
    <g id="Page-1" stroke="none" stroke-width="1" fill="none" fill-rule="evenodd">
        <g id="Desktop" transform="translate(-1028.000000, -1686.000000)" fill="#000000" fill-rule="nonzero">
            <g id="Premium-Features" transform="translate(0.000000, 1553.000000)">
                <g id="next-day" transform="translate(1028.000000, 133.000000)">
                    <g id="Group">
                        <rect id="Rectangle" x="7.4305" y="22.9225718" width="6.586125" height="1.09666924"></rect>
                        <rect id="Rectangle" x="24.22525" y="22.9225718" width="6.586125" height="1.09666924"></rect>
                        <rect id="Rectangle" x="41.02" y="22.9225718" width="6.586125" height="1.09666924"></rect>
                        <rect id="Rectangle" x="7.4305" y="33.0084335" width="6.586125" height="1.09666924"></rect>
                        <rect id="Rectangle" x="24.22525" y="33.0084335" width="6.586125" height="1.09666924"></rect>
                        <rect id="Rectangle" x="7.4305" y="43.0942952" width="6.586125" height="1.0957954"></rect>
                        <rect id="Rectangle" x="24.22525" y="43.0942952" width="6.586125" height="1.0957954"></rect>
                        <rect id="Rectangle" x="41.02" y="43.0942952" width="6.586125" height="1.0957954"></rect>
                        <path d="M53.71975,52.4784633 L1.316875,52.4784633 L1.316875,16.3678977 L53.718875,16.3678977 L53.718875,28.2398884 L55.036625,28.2398884 L55.036625,16.3678977 L55.036625,15.7098962 L55.036625,4.75106827 L46.452875,4.75106827 L46.452875,0.384489616 L40.525625,0.384489616 L40.525625,4.75019443 L14.510125,4.75019443 L14.510125,0.384489616 L8.582875,0.384489616 L8.582875,4.75019443 L0,4.75019443 L0,15.71077 L0,16.3687715 L0,53.7944664 L55.036625,53.7944664 L55.036625,38.4349801 L53.718875,38.4349801 L53.718875,52.4784633 L53.71975,52.4784633 Z M1.316875,6.06619753 L8.582875,6.06619753 L8.582875,8.73140963 L14.510125,8.73140963 L14.510125,6.06619753 L40.525625,6.06619753 L40.525625,8.73140963 L46.452875,8.73140963 L46.452875,6.06619753 L53.718875,6.06619753 L53.718875,15.0518946 L1.316875,15.0518946 L1.316875,6.06619753 Z" id="Shape"></path>
                        <polygon id="Path" points="70 33.0084335 57.48575 26.7596034 57.48575 30.443713 40.8555 30.443713 40.8555 35.5740278 57.48575 35.5740278 57.48575 39.2581374"></polygon>
                    </g>
                </g>
            </g>
        </g>
    </g>
</svg>