<?xml version="1.0" encoding="UTF-8"?>
<svg width="74px" height="84px" viewBox="0 0 74 84" version="1.1" xmlns="http://www.w3.org/2000/svg" xmlns:xlink="http://www.w3.org/1999/xlink">
    <!-- Generator: Sketch 53.1 (72631) - https://sketchapp.com -->
    <title>noun_parcel_1672163</title>
    <desc>Created with Sketch.</desc>
    <g id="Page-1" stroke="none" stroke-width="1" fill="none" fill-rule="evenodd">
        <g id="Desktop" transform="translate(-1022.000000, -147.000000)" fill="#000000" fill-rule="nonzero">
            <g id="Group" transform="translate(103.000000, 54.000000)">
                <g id="Group-10" transform="translate(829.000000, 93.000000)">
                    <g id="noun_parcel_1672163" transform="translate(90.000000, 0.000000)">
                        <path d="M74,26.29375 L74,26.29375 C73.9913372,25.8784811 73.881865,25.4715627 73.6810345,25.108125 C73.6810345,25.06875 73.6810345,25.020625 73.6460794,24.98125 L62.4211148,5.6525 C60.3799305,2.15738451 56.6423515,0.00651648798 52.5987246,0 L21.4012754,0 C17.3576485,0.00651648798 13.6200695,2.15738451 11.5788852,5.6525 L0.353920642,24.976875 C0.332073689,25.01625 0.353920642,25.064375 0.318965517,25.10375 C0.118134997,25.4671877 0.00866283269,25.8741061 0,26.289375 L0,26.289375 L0,72.625 C-7.76159696e-15,75.6418376 1.1968975,78.5351133 3.32738872,80.6683396 C5.45787993,82.8015659 8.34744611,84 11.3604157,84 L62.6395843,84 C65.6525539,84 68.5421201,82.8015659 70.6726113,80.6683396 C72.8031025,78.5351133 74,75.6418376 74,72.625 L74,26.298125 L74,26.29375 Z M39.6216344,5.25 L52.5987246,5.25 C54.7803678,5.25380217 56.7948674,6.42071131 57.8856873,8.3125 L66.8167218,23.695 L39.6216344,23.695 L39.6216344,5.25 Z M16.1099433,8.3125 C17.2007632,6.42071131 19.2152629,5.25380217 21.396906,5.25 L34.3783656,5.25 L34.3783656,23.6775 L7.17890883,23.6775 L16.1099433,8.3125 Z M68.7567312,72.625 C68.7567312,76.0077441 66.0179913,78.75 62.6395843,78.75 L11.3604157,78.75 C7.98200873,78.75 5.24326878,76.0077441 5.24326878,72.625 L5.24326878,28.923125 L68.7567312,28.923125 L68.7567312,72.625 Z M25.4385923,53.83875 C24.4163179,52.8138886 24.4163179,51.1536114 25.4385923,50.12875 L35.0862069,40.46875 C35.5779423,39.9758353 36.2452072,39.6988725 36.9410132,39.6988725 C37.6368192,39.6988725 38.3040842,39.9758353 38.7958196,40.46875 L48.5614077,50.246875 C49.5704379,51.274959 49.5627723,52.9253959 48.544236,53.9440386 C47.5256996,54.9626813 45.877371,54.9684115 44.851795,53.956875 L39.5604629,48.65875 L39.5604629,65.345 C39.5604628,66.7947474 38.3867172,67.9699998 36.9388285,67.9699998 C35.4909399,67.9699998 34.3171942,66.7947474 34.3171941,65.345 L34.3171941,48.663125 L29.1350968,53.83875 C28.1125612,54.8565244 26.461128,54.8565244 25.4385923,53.83875 L25.4385923,53.83875 Z" id="Shape"></path>
                    </g>
                </g>
            </g>
        </g>
    </g>
</svg>