<?xml version="1.0" encoding="UTF-8"?>
<svg width="70px" height="63px" viewBox="0 0 70 63" version="1.1" xmlns="http://www.w3.org/2000/svg" xmlns:xlink="http://www.w3.org/1999/xlink">
    <!-- Generator: Sketch 53.2 (72643) - https://sketchapp.com -->
    <title>Robot</title>
    <desc>Created with Sketch.</desc>
    <g id="Page-1" stroke="none" stroke-width="1" fill="none" fill-rule="evenodd">
        <g id="Desktop" transform="translate(-184.000000, -1682.000000)">
            <g id="Premium-Features" transform="translate(0.000000, 1553.000000)">
                <g id="Robot" transform="translate(184.000000, 129.000000)">
                    <g id="Group">
                        <ellipse id="Oval" cx="21.4425556" cy="36.6848636" rx="1.76555556" ry="1.76698864"></ellipse>
                        <path d="M3.71777778,41.4362727 C3.71777778,44.1319034 5.48411111,46.4212045 7.91855556,47.2081761 L7.91855556,35.6651477 C5.48411111,36.4521193 3.71777778,38.7414205 3.71777778,41.4362727 Z" id="Path"></path>
                        <ellipse id="Oval" cx="48.5574444" cy="36.6848636" rx="1.76555556" ry="1.76698864"></ellipse>
                        <ellipse id="Oval" cx="35" cy="7.52098864" rx="3.54122222" ry="3.54409659"></ellipse>
                        <path d="M50.5446667,23.1973693 L19.4561111,23.1973693 C15.1441111,23.1973693 11.6363333,26.7079943 11.6363333,31.0227159 L11.6363333,50.471267 C11.6363333,54.7859886 15.1441111,58.2966136 19.4561111,58.2966136 L50.5446667,58.2966136 C54.8558889,58.2966136 58.3636667,54.7859886 58.3636667,50.471267 L58.3636667,31.0227159 C58.3636667,26.7079943 54.8558889,23.1973693 50.5446667,23.1973693 Z M21.4425556,42.1726477 C18.4193333,42.1726477 15.9592222,39.7105398 15.9592222,36.6848636 C15.9592222,33.6584091 18.4193333,31.1963011 21.4425556,31.1963011 C24.4665556,31.1963011 26.9258889,33.6584091 26.9258889,36.6848636 C26.9266667,39.7105398 24.4665556,42.1726477 21.4425556,42.1726477 Z M40.0656667,51.6770227 L29.9351111,51.6770227 C28.9084444,51.6770227 28.0762222,50.844125 28.0762222,49.8158466 C28.0762222,48.789125 28.9084444,47.9562273 29.9351111,47.9562273 L40.0656667,47.9562273 C41.0915556,47.9562273 41.9237778,48.789125 41.9237778,49.8158466 C41.9237778,50.844125 41.0915556,51.6770227 40.0656667,51.6770227 Z M48.5574444,42.1726477 C45.5342222,42.1726477 43.0741111,39.7105398 43.0741111,36.6848636 C43.0741111,33.6584091 45.5342222,31.1963011 48.5574444,31.1963011 C51.5806667,31.1963011 54.0407778,33.6584091 54.0407778,36.6848636 C54.0407778,39.7105398 51.5806667,42.1726477 48.5574444,42.1726477 Z" id="Shape"></path>
                        <path d="M62.0806667,35.6651477 L62.0806667,47.2081761 C64.5151111,46.4212045 66.2814444,44.1319034 66.2814444,41.4362727 C66.2822222,38.7414205 64.5158889,36.4521193 62.0806667,35.6651477 Z" id="Path"></path>
                        <path d="M62.0806667,31.8299261 L62.0806667,31.0227159 C62.0806667,24.656108 56.9053333,19.4765739 50.5438889,19.4765739 L36.8588889,19.4765739 L36.8588889,14.543017 C39.9637778,13.7186818 42.259,10.8829375 42.259,7.52098864 C42.259,3.51451705 39.0024444,0.256096591 35,0.256096591 C30.9975556,0.256096591 27.741,3.51451705 27.741,7.52098864 C27.741,10.8837159 30.0362222,13.7186818 33.1411111,14.543017 L33.1411111,19.4765739 L19.4561111,19.4765739 C13.0938889,19.4765739 7.91855556,24.656108 7.91855556,31.0227159 L7.91855556,31.8299261 C3.41366667,32.7009659 0,36.677858 0,41.4362727 C0,46.2016932 3.42066667,50.1809205 7.93333333,51.0472898 C8.23433333,57.146125 13.2875556,62.0166307 19.4561111,62.0166307 L50.5446667,62.0166307 C56.7132222,62.0166307 61.7656667,57.146125 62.0674444,51.0472898 C66.5793333,50.1809205 70,46.2016932 70,41.4362727 C70,36.677858 66.5863333,32.7009659 62.0806667,31.8299261 Z M7.91933333,47.2081761 C5.48488889,46.4212045 3.71855556,44.1319034 3.71855556,41.4362727 C3.71855556,38.7414205 5.48488889,36.4521193 7.91933333,35.6651477 L7.91933333,47.2081761 Z M31.4587778,7.52098864 C31.4587778,5.56640341 33.0477778,3.97689205 35,3.97689205 C36.9522222,3.97689205 38.5412222,5.56640341 38.5412222,7.52098864 C38.5412222,9.47557386 36.9522222,11.0643068 35,11.0643068 C33.0477778,11.0643068 31.4587778,9.47479545 31.4587778,7.52098864 Z M58.3636667,50.471267 C58.3636667,54.7859886 54.8558889,58.2966136 50.5446667,58.2966136 L19.4561111,58.2966136 C15.1441111,58.2966136 11.6363333,54.7859886 11.6363333,50.471267 L11.6363333,31.0227159 C11.6363333,26.7079943 15.1441111,23.1973693 19.4561111,23.1973693 L50.5446667,23.1973693 C54.8558889,23.1973693 58.3636667,26.7079943 58.3636667,31.0227159 L58.3636667,50.471267 L58.3636667,50.471267 Z M62.0806667,47.2081761 L62.0806667,35.6651477 C64.5151111,36.4521193 66.2814444,38.7414205 66.2814444,41.4362727 C66.2822222,44.1326818 64.5158889,46.4212045 62.0806667,47.2081761 Z" id="Shape" fill="#000000" fill-rule="nonzero"></path>
                        <path d="M48.5574444,31.1963011 C45.5342222,31.1963011 43.0741111,33.6584091 43.0741111,36.6848636 C43.0741111,39.7105398 45.5342222,42.1726477 48.5574444,42.1726477 C51.5806667,42.1726477 54.0407778,39.7105398 54.0407778,36.6848636 C54.0407778,33.6584091 51.5806667,31.1963011 48.5574444,31.1963011 Z M48.5574444,38.4518523 C47.5836667,38.4518523 46.7918889,37.6602102 46.7918889,36.685642 C46.7918889,35.7110739 47.5836667,34.917875 48.5574444,34.917875 C49.5312222,34.917875 50.3237778,35.7110739 50.3237778,36.685642 C50.3237778,37.6594318 49.5312222,38.4518523 48.5574444,38.4518523 Z" id="Shape" fill="#000000" fill-rule="nonzero"></path>
                        <path d="M21.4425556,31.1963011 C18.4193333,31.1963011 15.9592222,33.6584091 15.9592222,36.6848636 C15.9592222,39.7105398 18.4193333,42.1726477 21.4425556,42.1726477 C24.4665556,42.1726477 26.9258889,39.7105398 26.9258889,36.6848636 C26.9266667,33.6584091 24.4665556,31.1963011 21.4425556,31.1963011 Z M21.4425556,38.4518523 C20.4687778,38.4518523 19.677,37.6602102 19.677,36.685642 C19.677,35.7110739 20.4687778,34.917875 21.4425556,34.917875 C22.4163333,34.917875 23.2088889,35.7110739 23.2088889,36.685642 C23.2088889,37.6594318 22.4163333,38.4518523 21.4425556,38.4518523 Z" id="Shape" fill="#000000" fill-rule="nonzero"></path>
                        <path d="M40.0656667,47.9562273 L29.9351111,47.9562273 C28.9084444,47.9562273 28.0762222,48.789125 28.0762222,49.8158466 C28.0762222,50.844125 28.9084444,51.6770227 29.9351111,51.6770227 L40.0656667,51.6770227 C41.0915556,51.6770227 41.9237778,50.844125 41.9237778,49.8158466 C41.9237778,48.789125 41.0915556,47.9562273 40.0656667,47.9562273 Z" id="Path" fill="#000000" fill-rule="nonzero"></path>
                    </g>
                </g>
            </g>
        </g>
    </g>
</svg>