<?xml version="1.0" encoding="UTF-8"?>
<svg width="58px" height="58px" viewBox="0 0 58 58" version="1.1" xmlns="http://www.w3.org/2000/svg" xmlns:xlink="http://www.w3.org/1999/xlink">
    <!-- Generator: Sketch 53.2 (72643) - https://sketchapp.com -->
    <title>noun_Delayed Delivery_1328193</title>
    <desc>Created with Sketch.</desc>
    <defs>
        <rect id="path-1" x="0" y="0" width="70" height="61.8604651"></rect>
    </defs>
    <g id="Page-1" stroke="none" stroke-width="1" fill="none" fill-rule="evenodd">
        <g id="Desktop" transform="translate(-613.000000, -1685.000000)">
            <g id="Premium-Features" transform="translate(0.000000, 1553.000000)">
                <g id="noun_Delayed-Delivery_1328193" transform="translate(606.000000, 130.000000)">
                    <mask id="mask-2" fill="white">
                        <use xlink:href="#path-1"></use>
                    </mask>
                    <g id="Mask"></g>
                    <g mask="url(#mask-2)">
                        <g transform="translate(7.325581, 2.441860)">
                            <g transform="translate(0.000000, -0.000000)">
                                <g id="Group" fill="#000000" fill-rule="nonzero">
                                    <path d="M56.9767442,30.7587141 C56.9767442,29.8971254 56.717759,29.1216957 56.286117,28.4324248 L50.5021142,18.868791 C49.6388302,17.4902492 48.1712474,16.7148194 46.6173362,16.7148194 L38.0708245,16.7148194 L38.0708245,10.7698579 C38.0708245,10.2529047 37.7255109,9.90826924 37.2075405,9.90826924 L32.8047921,9.90826924 C30.9918957,4.13562542 25.5532065,0 19.2512333,0 C12.8629316,0 7.42424242,4.13562542 5.61134602,9.90826924 L0.863284003,9.90826924 C0.345313601,9.90826924 0,10.2529047 0,10.7698579 C0,32.6542091 0,46.6981037 0,48.7659164 C0,49.2828696 0.345313601,49.6275051 0.863284003,49.6275051 L9.92776603,49.6275051 C9.92776603,49.7998228 9.92776603,50.0582994 9.92776603,50.316776 C9.92776603,53.9354482 12.8629316,56.9510084 16.5750529,56.9510084 C20.2008457,56.9510084 23.2223397,54.0216071 23.2223397,50.316776 C23.2223397,50.0582994 23.2223397,49.8859817 23.2223397,49.6275051 L37.8981677,49.6275051 C37.8981677,49.7998228 37.8981677,50.0582994 37.8981677,50.316776 C37.8981677,53.9354482 40.8333333,56.9510084 44.5454545,56.9510084 C48.1712474,56.9510084 51.1927414,54.0216071 51.1927414,50.316776 C51.1927414,50.0582994 51.1927414,49.8859817 51.1927414,49.6275051 L56.1134602,49.6275051 C56.6314306,49.6275051 56.9767442,49.2828696 56.9767442,48.7659164 C56.9767442,31.8787793 56.9767442,47.3873746 56.9767442,30.7587141 Z M46.6173362,18.4379967 C47.5669486,18.4379967 48.516561,18.9549499 49.0345314,19.8165385 L54.8185342,29.2940134 C55.0775194,29.7248077 55.2501762,30.2417609 55.2501762,30.7587141 L55.2501762,38.6853295 L38.0708245,38.6853295 L38.0708245,18.4379967 L46.6173362,18.4379967 Z M1.72656801,34.9804984 L36.3442565,34.9804984 L36.3442565,38.6853295 L1.72656801,38.6853295 L1.72656801,34.9804984 Z M19.2512333,1.72317726 C26.1575053,1.72317726 31.7688513,7.32350335 31.7688513,14.2162124 C31.7688513,21.1089214 26.1575053,26.7092475 19.2512333,26.7092475 C12.3449612,26.7092475 6.73361522,21.1089214 6.73361522,14.2162124 C6.64728682,7.32350335 12.2586328,1.72317726 19.2512333,1.72317726 Z M5.17970402,11.6314465 C5.00704722,12.4930351 4.92071882,13.3546238 4.92071882,14.2162124 C4.92071882,22.0566689 11.3090204,28.4324248 19.1649049,28.4324248 C27.0207893,28.4324248 33.4090909,22.0566689 33.4090909,14.2162124 C33.4090909,13.3546238 33.3227625,12.4930351 33.1501057,11.6314465 L36.2579281,11.6314465 L36.2579281,33.1711622 L1.72656801,33.1711622 L1.72656801,11.6314465 L5.17970402,11.6314465 Z M16.5750529,55.1416723 C13.8988724,55.1416723 11.654334,52.9877007 11.654334,50.2306171 C11.654334,47.4735335 13.812544,45.3195619 16.5750529,45.3195619 C19.3375617,45.3195619 21.4957717,47.4735335 21.4957717,50.2306171 C21.4957717,52.9877007 19.2512333,55.1416723 16.5750529,55.1416723 Z M44.4591261,55.1416723 C41.7829457,55.1416723 39.5384073,52.9877007 39.5384073,50.2306171 C39.5384073,47.4735335 41.6966173,45.3195619 44.4591261,45.3195619 C47.1353066,45.3195619 49.379845,47.4735335 49.379845,50.2306171 C49.379845,52.9877007 47.1353066,55.1416723 44.4591261,55.1416723 Z M55.2501762,47.9043278 L50.674771,47.9043278 C49.7251586,45.4057208 47.3079634,43.6825435 44.4591261,43.6825435 C41.6102889,43.6825435 39.1930937,45.4057208 38.2434813,47.9043278 L22.7043693,47.9043278 C21.7547569,45.4057208 19.3375617,43.6825435 16.4887245,43.6825435 C13.6398872,43.6825435 11.222692,45.4057208 10.2730796,47.9043278 L1.72656801,47.9043278 L1.72656801,40.4085067 L55.2501762,40.4085067 L55.2501762,47.9043278 Z" id="Shape"></path>
                                    <path d="M42.1282593,30.8448729 L50.7610994,30.8448729 C50.7610994,30.8448729 50.7610994,30.8448729 50.7610994,30.8448729 C51.2790698,30.8448729 51.6243834,30.5002375 51.6243834,29.9832843 C51.6243834,29.7248077 51.538055,29.55249 51.3653982,29.3801723 L47.1353066,22.5736221 C46.7036646,21.8843512 45.9267089,21.4535569 45.1497533,21.4535569 L42.0419309,21.4535569 C41.5239605,21.4535569 41.1786469,21.7981923 41.1786469,22.3151455 L41.1786469,29.8971254 C41.2649753,30.4140786 41.6102889,30.8448729 42.1282593,30.8448729 Z M42.9915433,23.1767341 L45.2360817,23.1767341 C45.4087385,23.1767341 45.6677237,23.262893 45.7540521,23.4352107 L49.2071882,29.0355368 L42.9915433,29.0355368 L42.9915433,23.1767341 Z" id="Shape"></path>
                                    <polygon id="Path" points="20.3735025 17.8348846 21.1504581 7.58197994 21.1504581 3.9633077 17.1793517 3.9633077 17.1793517 7.58197994 18.0426357 17.8348846"></polygon>
                                    <path d="M19.2512333,24.4691171 C19.8555321,24.4691171 20.2871741,24.2967994 20.7188161,23.866005 C21.1504581,23.4352107 21.3231149,22.9182575 21.3231149,22.4013044 C21.3231149,21.7981923 21.1504581,21.367398 20.7188161,20.9366037 C20.2871741,20.5058094 19.7692037,20.3334917 19.2512333,20.3334917 C18.7332629,20.3334917 18.2152925,20.5058094 17.7836505,20.9366037 C17.3520085,21.367398 17.1793517,21.8843512 17.1793517,22.4013044 C17.1793517,23.0044164 17.3520085,23.4352107 17.7836505,23.866005 C18.1289641,24.2967994 18.6469345,24.4691171 19.2512333,24.4691171 Z" id="Path"></path>
                                </g>
                            </g>
                        </g>
                    </g>
                </g>
            </g>
        </g>
    </g>
</svg>