<?xml version="1.0" encoding="UTF-8"?>
<svg width="70px" height="72px" viewBox="0 0 70 72" version="1.1" xmlns="http://www.w3.org/2000/svg" xmlns:xlink="http://www.w3.org/1999/xlink">
    <!-- Generator: Sketch 53.2 (72643) - https://sketchapp.com -->
    <title>Tracking</title>
    <desc>Created with Sketch.</desc>
    <g id="Page-1" stroke="none" stroke-width="1" fill="none" fill-rule="evenodd">
        <g id="Desktop" transform="translate(-583.000000, -996.000000)" fill="#000000" fill-rule="nonzero">
            <g id="Standard-Features" transform="translate(-29.000000, 700.000000)">
                <g id="Tracking">
                    <g transform="translate(612.000000, 296.000000)">
                        <path d="M1.78138562,47.9954516 L10.3808732,47.8940083 C10.229245,49.9591037 10.0992779,52.458956 9.99097205,55.3066139 L9.81768262,60.2918266 L9.72381752,62.9873196 C9.72381752,63.4583063 9.72381752,63.8785713 9.72381752,64.4365093 C9.72717879,65.0684925 9.8145956,65.697197 9.98375165,66.3059641 C10.7418718,68.9248666 12.9606513,70.8536695 15.6517599,71.2332093 C15.9799007,71.2757157 16.3101402,71.2999061 16.6409537,71.3056688 L17.4063153,71.3056688 L18.9514793,71.3056688 L22.0779093,71.3056688 C26.2873982,71.3491445 30.6340746,71.3636364 34.9807509,71.3636364 C39.3274273,71.3636364 43.6452221,71.3636364 47.8835926,71.2984228 L51.0100226,71.2621931 L52.5551866,71.2621931 L53.3205482,71.2621931 C53.6538034,71.2574051 53.9865009,71.2332112 54.3169624,71.1897336 C57.0134751,70.8114243 59.2349001,68.874642 59.9849706,66.2479965 C60.1604355,65.6449533 60.2551322,65.0211544 60.2665659,64.3930337 L60.2665659,62.9438439 L60.194362,60.2555969 L59.956089,55.292122 C59.8405628,52.466202 59.7105957,49.9880875 59.5589675,47.9302381 L68.2089978,48.0461732 C68.8608635,48.0462989 69.4613011,47.6909189 69.7765994,47.1183596 C70.0918978,46.5458003 70.072241,45.8465238 69.7252803,45.2927127 L69.7252803,45.2927127 L60.7070099,30.5182232 C60.3632047,29.955492 59.7545949,29.6103966 59.0968623,29.6052336 L59.0968623,29.6052336 C43.2119985,29.5255282 26.2873982,29.5255282 10.9007415,29.6052336 L10.9007415,29.6052336 C10.2506928,29.6107802 9.64976914,29.9534226 9.31225514,30.5109772 L0.272323565,45.2927127 L0.272323565,45.2927127 C-0.072560042,45.8391298 -0.0911492837,46.5313181 0.223906083,47.0955841 C0.538961449,47.65985 1.13693479,48.0053421 1.78138562,47.9954516 Z M58.0282442,33.5035541 L64.9309396,44.4231989 C57.6527838,44.5029043 50.8656147,44.6043476 44.8582481,44.7275287 C42.0711765,40.4524189 39.580141,36.6700337 37.4717864,33.5542757 C44.3817021,33.5542757 51.2771771,33.5108 58.0138034,33.4745703 L58.0282442,33.5035541 Z M36.2587604,35.7280603 C38.1216217,38.9742454 40.3382823,42.7566306 42.8509789,47.0027566 C43.0968552,47.4189305 43.5387183,47.6789649 44.0206825,47.6911217 L44.0784457,47.6911217 C48.2012898,47.7780731 52.7429168,47.8505326 57.5228167,47.9157462 C57.3711885,49.9735956 57.2412214,52.466202 57.1256951,55.3066139 L56.9524057,60.2918266 L56.8802018,62.9800736 L56.8440998,64.342312 C56.8203967,64.655768 56.7573204,64.964962 56.6563696,65.2625475 C56.2334487,66.5095715 55.1305095,67.3989989 53.8259757,67.5450214 C53.6528079,67.5542344 53.4792753,67.5542344 53.3061074,67.5450214 L52.5407458,67.5450214 L50.9955818,67.5450214 L47.8691518,67.5087916 C44.0567845,67.4725619 40.1361113,67.450824 36.2009973,67.4435781 C37.1613095,59.8063481 37.2046319,43.4884715 36.2587604,35.7280603 Z M33.7388434,67.4290862 C29.8109498,67.4290862 25.8902766,67.4290862 22.0851297,67.4870538 L18.9586997,67.4870538 L17.4135357,67.4870538 L16.6481741,67.4870538 C16.4965458,67.4870538 16.4604438,67.4870538 16.3665787,67.4870538 C16.284896,67.4940467 16.2027682,67.4940467 16.1210854,67.4870538 C14.8214791,67.3442304 13.7212684,66.4603818 13.2979119,65.2190718 C13.2017206,64.9208849 13.1434954,64.6116863 13.1246224,64.2988363 L13.0885205,62.9438439 L13.0163166,60.2555969 L12.8358067,55.292122 C12.7202805,52.4299722 12.5903134,49.915628 12.4386851,47.8505326 C17.49296,47.7780731 21.8829587,47.6911217 25.861395,47.5969244 L25.9263786,47.5969244 C26.3858092,47.5917288 26.810708,47.3511939 27.0527598,46.9592809 C29.99868,42.0320358 32.0709327,38.5105047 33.7099618,35.6556008 C32.7424292,43.4015201 32.75687,59.7918562 33.7388434,67.4290862 Z M11.8899353,33.4600784 C18.5471373,33.4963081 25.4787142,33.5252919 32.4752747,33.5325379 C30.6629561,36.3004903 28.3740917,39.7640538 25.124915,44.8144801 C19.442466,44.684053 12.8502475,44.5753638 4.95835838,44.4884124 L11.8899353,33.4600784 Z" id="Shape"></path>
                        <path d="M40.3915075,19.5748511 C37.1856192,17.7174739 33.1801765,17.7174739 29.9742883,19.5748511 C28.8254856,20.2194831 27.8889318,21.1645857 27.2727273,22.3010718 C27.4363322,22.5976425 27.6591423,22.8600087 27.9283061,23.0730374 C28.134492,23.2961155 28.3780165,23.4841875 28.6487223,23.629409 C29.4123636,23.3790418 30.3705172,22.9339445 31.5303874,22.5931669 C33.9413424,21.819378 36.5469241,21.819378 38.9578791,22.5931669 C40.0817285,22.9339445 41.032678,23.3859964 41.7963192,23.6363636 C42.1042545,23.4478018 42.3790635,23.2130311 42.6103896,22.9408992 C42.9633935,22.6001216 43.2083351,22.2941172 43.1795184,22.2454347 C42.529597,21.1192845 41.563084,20.1934797 40.3915075,19.5748511 L40.3915075,19.5748511 Z" id="Path"></path>
                        <path d="M48.5719683,16.6242306 C48.9237379,16.265636 49.139107,15.9070413 49.0816752,15.8496662 C47.7487896,13.9998694 46.0102716,12.4789392 43.9989643,11.4030924 C38.3940344,8.32018131 31.5990372,8.32018131 25.9941072,11.4030924 C23.9837691,12.4806281 22.2474531,14.0042339 20.9185753,15.8568381 C20.8539646,15.9500727 21.1267655,16.330183 21.5144298,16.7102934 C21.9020942,17.0904037 22.189253,17.269701 22.2323269,17.2266697 C23.8898181,16.1713633 25.6332833,15.2573063 27.4442592,14.4941784 C29.8407655,13.5606381 32.3884346,13.0744571 34.9606409,13.0597997 C37.5331677,13.0885597 40.0785045,13.589346 42.4698437,14.5372097 C44.2763999,15.2999853 46.0151245,16.2140751 47.6674181,17.269701 C47.7894606,17.3055605 48.1843039,17.0186848 48.5719683,16.6242306 Z" id="Path"></path>
                        <path d="M54.9821786,10.3071409 C55.3296381,9.94147139 55.5250841,9.57580184 55.4309805,9.45878759 C53.3763025,6.88361897 50.8153649,4.76692425 47.9099301,3.2424053 C39.8298028,-1.08080177 30.1549959,-1.08080177 22.0748686,3.2424053 C19.1724697,4.77163261 16.6162485,6.89348476 14.5682957,9.47341437 C14.4669534,9.59774202 14.7130705,10.0146053 15.1039624,10.3949016 C15.4948544,10.775198 15.8278364,10.9360926 15.92194,10.8629586 C18.304548,9.10573625 20.8673242,7.6125297 23.566049,6.40910357 C27.1901877,4.86704187 31.0781908,4.05707328 35.0104962,4.02493813 C38.9262621,4.06548965 42.7965464,4.87783692 46.4042722,6.41641696 C49.1021118,7.62592817 51.6626131,9.12657955 54.0411425,10.8922122 C54.164201,10.9799729 54.5912867,10.7166908 54.9821786,10.3071409 Z" id="Path"></path>
                    </g>
                </g>
            </g>
        </g>
    </g>
</svg>