<?xml version="1.0" encoding="UTF-8"?>
<svg width="42px" height="42px" viewBox="0 0 42 42" version="1.1" xmlns="http://www.w3.org/2000/svg" xmlns:xlink="http://www.w3.org/1999/xlink">
    <!-- Generator: Sketch 53.1 (72631) - https://sketchapp.com -->
    <title>twitter</title>
    <desc>Created with Sketch.</desc>
    <g id="Page-1" stroke="none" stroke-width="1" fill="none" fill-rule="evenodd">
        <g id="Desktop" transform="translate(-166.000000, -1768.000000)" fill-rule="nonzero">
            <g id="Group" transform="translate(0.000000, 1215.000000)">
                <g id="Footer" transform="translate(109.000000, 488.000000)">
                    <g id="Group-4" transform="translate(0.000000, 10.000000)">
                        <g id="Group-2" transform="translate(0.000000, 55.000000)">
                            <g id="twitter" transform="translate(57.000000, 0.000000)">
                                <circle id="Oval" fill="#55ACEE" cx="21" cy="21" r="21"></circle>
                                <path d="M33,15.3676927 C32.1172312,15.7690859 31.1676306,16.0405723 30.1717617,16.1618187 C31.1885615,15.5371364 31.9688791,14.5487151 32.337189,13.3690106 C31.3857523,13.9477549 30.3314973,14.3675986 29.2104104,14.5939 C28.3122189,13.6130095 27.0324979,13 25.6154411,13 C22.8966309,13 20.691545,15.2611315 20.691545,18.0490445 C20.691545,18.4447896 20.7352428,18.8299915 20.8197007,19.1997552 C16.7275314,18.9892686 13.0991462,16.9792902 10.6704306,13.9236562 C10.2466722,14.6692083 10.0035803,15.5371364 10.0035803,16.4622988 C10.0035803,18.2135931 10.8734967,19.7596724 12.1939778,20.6648781 C11.3872212,20.6388967 10.6274672,20.4118422 9.96392178,20.032665 C9.96355458,20.0541278 9.96355458,20.0755907 9.96355458,20.096677 C9.96355458,22.5430669 11.6615258,24.5835451 13.9136142,25.0470677 C13.5008721,25.1630425 13.0649959,25.2244187 12.6166345,25.2244187 C12.2986321,25.2244187 11.9905444,25.1931658 11.690168,25.1344253 C12.3166254,27.1398852 14.1346736,28.5997364 16.2898191,28.6407794 C14.6043331,29.9951991 12.4815019,30.8021275 10.1739649,30.8021275 C9.77737997,30.8021275 9.38446709,30.7784053 9,30.7313377 C11.1779124,32.1644545 13.7667309,33 16.5472322,33 C25.6040577,33 30.5569632,25.3065048 30.5569632,18.6338134 C30.5569632,18.4150428 30.5521895,18.1970253 30.5426421,17.9808905 C31.5054622,17.2692271 32.3401267,16.3802127 33,15.3676927 L33,15.3676927 Z" id="Path" fill="#F1F2F2"></path>
                            </g>
                        </g>
                    </g>
                </g>
            </g>
        </g>
    </g>
</svg>