<?xml version="1.0" encoding="UTF-8"?>
<svg width="66px" height="46px" viewBox="0 0 66 46" version="1.1" xmlns="http://www.w3.org/2000/svg" xmlns:xlink="http://www.w3.org/1999/xlink">
    <!-- Generator: Sketch 53.2 (72643) - https://sketchapp.com -->
    <title>noun_Truck_1225205</title>
    <desc>Created with Sketch.</desc>
    <defs>
        <rect id="path-1" x="0" y="0" width="70" height="58.8"></rect>
    </defs>
    <g id="Page-1" stroke="none" stroke-width="1" fill="none" fill-rule="evenodd">
        <g id="Desktop" transform="translate(-587.000000, -837.000000)">
            <g id="Standard-Features" transform="translate(-29.000000, 700.000000)">
                <g id="noun_Truck_1225205">
                    <g transform="translate(612.000000, 128.000000)">
                        <mask id="mask-2" fill="white">
                            <use xlink:href="#path-1"></use>
                        </mask>
                        <g id="Mask"></g>
                        <g mask="url(#mask-2)" fill="#000000" fill-rule="nonzero" id="Shape">
                            <g transform="translate(0.000000, 9.800000)">
                                <path d="M18.9368421,19.1578947 L5.6,19.1578947 C4.78947368,19.1578947 4.12631579,18.4947368 4.12631579,17.6842105 C4.12631579,16.8736842 4.78947368,16.2105263 5.6,16.2105263 L18.9368421,16.2105263 C19.7473684,16.2105263 20.4105263,16.8736842 20.4105263,17.6842105 C20.4105263,18.4947368 19.7473684,19.1578947 18.9368421,19.1578947 Z M68.7473684,35.8105263 C67.9368421,36.9894737 66.6105263,37.6526316 65.1368421,37.6526316 L62.7052632,37.6526316 C62.3368421,41.4105263 59.1684211,44.2842105 55.3368421,44.2842105 C51.5052632,44.2842105 48.3368421,41.3368421 47.9684211,37.6526316 L33.0842105,37.6526316 C32.7157895,41.4105263 29.5473684,44.2842105 25.7157895,44.2842105 C21.8842105,44.2842105 18.7157895,41.3368421 18.3473684,37.6526316 L14.3684211,37.6526316 C12.7473684,37.6526316 11.4947368,36.3263158 11.4947368,34.7789474 L11.4947368,21.9578947 C11.4947368,21.1473684 12.1578947,20.4842105 12.9684211,20.4842105 L12.9684211,20.4842105 C13.7789474,20.4842105 14.4421053,21.1473684 14.4421053,21.9578947 L14.4421053,34.7052632 L18.7157895,34.7052632 C19.6736842,31.6842105 22.4736842,29.5473684 25.7894737,29.5473684 C29.1052632,29.5473684 31.9052632,31.7578947 32.8631579,34.7052632 L44.1368421,34.7052632 L44.1368421,2.87368421 L14.4421053,2.87368421 L14.4421053,6.41052632 C14.4421053,7.22105263 13.7789474,7.88421053 12.9684211,7.88421053 L12.9684211,7.88421053 C12.1578947,7.88421053 11.4947368,7.22105263 11.4947368,6.41052632 L11.4947368,2.87368421 C11.4947368,1.25263158 12.8210526,0 14.3684211,0 L44.1368421,0 C45.7578947,0 47.0105263,1.32631579 47.0105263,2.87368421 L47.0105263,6.63157895 L62.8526316,6.63157895 C65.1368421,6.63157895 67.0526316,8.32631579 67.2736842,10.6105263 L69.2631579,25.7894737 L69.2631579,31.4631579 L69.4105263,31.8315789 C69.7789474,33.1578947 69.5578947,34.6315789 68.7473684,35.8105263 Z M30.2105263,36.9157895 C30.2105263,34.4842105 28.2210526,32.4947368 25.7894737,32.4947368 C23.3578947,32.4947368 21.3684211,34.4842105 21.3684211,36.9157895 C21.3684211,39.3473684 23.3578947,41.3368421 25.7894737,41.3368421 C28.2210526,41.3368421 30.2105263,39.3473684 30.2105263,36.9157895 Z M53.7157895,19.8947368 C53.7157895,20.7052632 54.3789474,21.3684211 55.1894737,21.3684211 L65.7263158,21.3684211 L64.4,10.9052632 C64.3263158,10.1684211 63.6631579,9.57894737 62.8526316,9.57894737 L53.7157895,9.57894737 L53.7157895,19.8947368 Z M59.8315789,36.9157895 C59.8315789,34.4842105 57.8421053,32.4947368 55.4105263,32.4947368 C52.9789474,32.4947368 50.9894737,34.4842105 50.9894737,36.9157895 C50.9894737,39.3473684 52.9789474,41.3368421 55.4105263,41.3368421 C57.8421053,41.3368421 59.8315789,39.3473684 59.8315789,36.9157895 Z M66.5368421,32.7894737 L66.3157895,31.9789474 L66.3157895,29.4736842 L64.5473684,29.4736842 C63.7368421,29.4736842 63.0736842,28.8105263 63.0736842,28 C63.0736842,27.1894737 63.7368421,26.5263158 64.5473684,26.5263158 L66.3157895,26.5263158 L66.3157895,25.8631579 L66.0947368,24.3157895 L55.1894737,24.3157895 C52.7578947,24.3157895 50.7684211,22.3263158 50.7684211,19.8947368 L50.7684211,9.50526316 L47.0842105,9.50526316 L47.0842105,34.7052632 L48.3368421,34.7052632 C49.2947368,31.6842105 52.0947368,29.5473684 55.4105263,29.5473684 C58.7263158,29.5473684 61.5263158,31.7578947 62.4842105,34.7052632 L65.2105263,34.7052632 C65.6526316,34.7052632 66.0947368,34.4842105 66.3894737,34.1157895 C66.6105263,33.6736842 66.6842105,33.2315789 66.5368421,32.7894737 Z M8.54736842,13.1894737 L23.3578947,13.1894737 C24.1684211,13.1894737 24.8315789,12.5263158 24.8315789,11.7157895 C24.8315789,10.9052632 24.1684211,10.2421053 23.3578947,10.2421053 L8.54736842,10.2421053 C7.73684211,10.2421053 7.07368421,10.9052632 7.07368421,11.7157895 C7.07368421,12.5263158 7.73684211,13.1894737 8.54736842,13.1894737 Z M56.1473684,35.6631579 C56.0736842,35.5894737 56,35.5894737 55.9263158,35.5157895 C55.8526316,35.4421053 55.7789474,35.4421053 55.6315789,35.4421053 C55.1157895,35.3684211 54.6736842,35.5157895 54.3052632,35.8105263 C54.0105263,36.1052632 53.8631579,36.4736842 53.8631579,36.8421053 C53.8631579,36.9157895 53.8631579,37.0631579 53.8631579,37.1368421 C53.8631579,37.2105263 53.9368421,37.3578947 53.9368421,37.4315789 C53.9368421,37.5052632 54.0105263,37.5789474 54.0842105,37.7263158 C54.1578947,37.8 54.2315789,37.8736842 54.2315789,37.9473684 C54.3789474,38.0947368 54.5263158,38.1684211 54.6736842,38.2421053 C54.8210526,38.3157895 55.0421053,38.3157895 55.2631579,38.3157895 C55.4842105,38.3157895 55.6315789,38.3157895 55.8526316,38.2421053 C56,38.1684211 56.2210526,38.0947368 56.2947368,37.9473684 C56.3684211,37.8736842 56.4421053,37.8 56.4421053,37.7263158 C56.5157895,37.6526316 56.5157895,37.5789474 56.5894737,37.4315789 C56.5894737,37.3578947 56.6631579,37.2842105 56.6631579,37.1368421 C56.6631579,37.0631579 56.6631579,36.9157895 56.6631579,36.8421053 C56.6631579,36.4736842 56.5157895,36.1052632 56.2210526,35.8105263 C56.2947368,35.8105263 56.2210526,35.7368421 56.1473684,35.6631579 Z M24.6842105,35.8842105 C24.3894737,36.1789474 24.2421053,36.5473684 24.2421053,36.9157895 C24.2421053,37.2842105 24.3894737,37.6526316 24.6842105,37.9473684 C24.9789474,38.2421053 25.3473684,38.3894737 25.7157895,38.3894737 C25.9368421,38.3894737 26.0842105,38.3894737 26.3052632,38.3157895 C26.4526316,38.2421053 26.6736842,38.1684211 26.7473684,38.0210526 C27.0421053,37.7263158 27.1894737,37.3578947 27.1894737,36.9894737 C27.1894737,36.6210526 27.0421053,36.2526316 26.7473684,35.9578947 C26.2315789,35.2947368 25.2736842,35.2947368 24.6842105,35.8842105 Z M22.3263158,16.6526316 C22.2526316,16.7263158 22.1789474,16.8 22.1789474,16.8736842 C22.1052632,16.9473684 22.1052632,17.0210526 22.0315789,17.0947368 C21.9578947,17.1684211 21.9578947,17.2421053 21.9578947,17.3894737 C21.9578947,17.4631579 21.9578947,17.6105263 21.9578947,17.6842105 C21.9578947,17.7578947 21.9578947,17.9052632 21.9578947,17.9789474 C21.9578947,18.0526316 22.0315789,18.2 22.0315789,18.2736842 C22.0315789,18.3473684 22.1052632,18.4210526 22.1789474,18.4947368 C22.2526316,18.5684211 22.2526316,18.6421053 22.3263158,18.7157895 C22.6210526,19.0105263 22.9894737,19.1578947 23.3578947,19.1578947 C23.7263158,19.1578947 24.0947368,19.0105263 24.3894737,18.7157895 C24.4631579,18.6421053 24.5368421,18.5684211 24.5368421,18.4947368 C24.6105263,18.4210526 24.6105263,18.3473684 24.6842105,18.2736842 C24.6842105,18.2 24.7578947,18.1263158 24.7578947,17.9789474 C24.7578947,17.9052632 24.7578947,17.7578947 24.7578947,17.6842105 C24.7578947,17.3157895 24.6105263,16.9473684 24.3157895,16.6526316 C23.8736842,16.0631579 22.8421053,16.0631579 22.3263158,16.6526316 Z"></path>
                            </g>
                        </g>
                    </g>
                </g>
            </g>
        </g>
    </g>
</svg>